<?xml version="1.0" encoding="utf-8"?>
<svg xmlns="http://www.w3.org/2000/svg"
	xmlns:xlink="http://www.w3.org/1999/xlink"
	width="67px" height="70px" viewBox="0 0 67 70">
<g><path fillRule="evenodd" d="M 59.37 65.86C 59.37 65.86 33.86 17.17 33.86 17.17 33.86 17.17 8.35 65.86 8.35 65.86 8.35 65.86 59.37 65.86 59.37 65.86M 62.67 67.86C 62.67 67.86 5.05 67.86 5.05 67.86 5.05 67.86 33.86 12.86 33.86 12.86 33.86 12.86 62.67 67.86 62.67 67.86 62.67 67.86 62.67 67.86 62.67 67.86Z" fill="rgb(255,255,255)"/><path fillRule="evenodd" d="M 33.5 64.43C 50.87 64.43 65 50.43 65 33.21 65 16 50.87 2 33.5 2 16.13 2 2 16 2 33.21 2 50.43 16.13 64.43 33.5 64.43M 33.5 66.43C 15 66.43-0 51.56-0 33.21-0 14.87 15-0 33.5-0 52-0 67 14.87 67 33.21 67 51.56 52 66.43 33.5 66.43 33.5 66.43 33.5 66.43 33.5 66.43Z" fill="rgb(245,247,251)"/><circle cx="33.50" cy="66.50" r="3.50" fill="rgb(255,255,255)"/><circle cx="60.50" cy="66.50" r="3.50" fill="rgb(255,255,255)"/><ellipse cx="5.00" cy="66.50" rx="4.00" ry="3.50" fill="rgb(255,255,255)"/></g></svg>