<?xml version="1.0" encoding="utf-8"?>
<svg xmlns="http://www.w3.org/2000/svg"
	xmlns:xlink="http://www.w3.org/1999/xlink"
	width="23px" height="37px" viewBox="0 0 23 37">
<path fillRule="evenodd" d="M 11.5 37C 5.16 37-0 31.84-0 25.49-0 25.49-0 11.42-0 11.42-0 5.44 4.61 0.47 10.54-0.01 10.54-0.01 12.45-0.01 12.45-0.01 18.38 0.47 23 5.44 23 11.42 23 11.42 23 25.49 23 25.49 23 31.84 17.84 37 11.5 37ZM 21.09 11.42C 21.09 6.12 16.79 1.81 11.5 1.81 6.21 1.81 1.91 6.12 1.91 11.42 1.91 11.42 1.91 25.49 1.91 25.49 1.91 30.78 6.21 35.09 11.5 35.09 16.79 35.09 21.09 30.78 21.09 25.49 21.09 25.49 21.09 11.42 21.09 11.42ZM 11.5 13.07C 10.58 13.07 9.84 12.33 9.84 11.42 9.84 10.5 10.58 9.76 11.5 9.76 12.41 9.76 13.15 10.5 13.15 11.42 13.15 12.33 12.41 13.07 11.5 13.07Z" fill="rgb(255,255,255)"/></svg>