<?xml version="1.0" encoding="utf-8"?>
<svg xmlns="http://www.w3.org/2000/svg"
	xmlns:xlink="http://www.w3.org/1999/xlink"
	width="79px" height="76px" viewBox="0 0 79 76">
<path fillRule="evenodd" d="M 76.92 76C 76.92 76 2.08 76 2.08 76 0.93 76-0 75.06-0 73.9-0 73.9-0 12.98-0 12.98-0 12.98-0 2.09-0 2.09-0 0.93 0.93-0.01 2.08-0.01 2.08-0.01 76.92-0.01 76.92-0.01 78.07-0.01 79 0.93 79 2.09 79 2.09 79 12.98 79 12.98 79 12.98 79 73.9 79 73.9 79 75.06 78.07 76 76.92 76ZM 74.84 4.19C 74.84 4.19 4.16 4.19 4.16 4.19 4.16 4.19 4.16 10.88 4.16 10.88 4.16 10.88 74.84 10.88 74.84 10.88 74.84 10.88 74.84 4.19 74.84 4.19ZM 74.84 15.08C 74.84 15.08 4.16 15.08 4.16 15.08 4.16 15.08 4.16 71.8 4.16 71.8 4.16 71.8 74.84 71.8 74.84 71.8 74.84 71.8 74.84 15.08 74.84 15.08ZM 27.75 34.62C 28.46 33.91 29.61 33.91 30.32 34.62 31.03 35.34 31.03 36.5 30.32 37.22 30.32 37.22 25.96 41.63 25.96 41.63 25.96 41.63 30.33 46.04 30.33 46.04 31.04 46.76 31.04 47.92 30.33 48.64 29.98 49 29.51 49.18 29.04 49.18 28.58 49.18 28.11 49 27.76 48.64 27.76 48.64 22.1 42.93 22.1 42.93 21.39 42.21 21.39 41.05 22.1 40.33 22.1 40.33 27.75 34.62 27.75 34.62ZM 39.75 32.85C 40 31.86 41 31.27 41.96 31.52 42.94 31.77 43.53 32.77 43.28 33.76 43.28 33.76 38.65 52.04 38.65 52.04 38.44 52.87 37.7 53.42 36.89 53.42 36.74 53.42 36.59 53.4 36.44 53.36 35.47 53.11 34.88 52.11 35.13 51.13 35.13 51.13 39.75 32.85 39.75 32.85ZM 48.67 34.62C 49.38 33.91 50.53 33.91 51.24 34.62 51.24 34.62 56.9 40.34 56.9 40.34 57.24 40.68 57.43 41.15 57.43 41.64 57.43 42.12 57.24 42.59 56.9 42.93 56.9 42.93 51.25 48.64 51.25 48.64 50.89 49 50.43 49.18 49.96 49.18 49.5 49.18 49.03 49 48.68 48.64 47.97 47.92 47.97 46.76 48.68 46.04 48.68 46.04 53.04 41.64 53.04 41.64 53.04 41.64 48.67 37.22 48.67 37.22 47.96 36.5 47.96 35.34 48.67 34.62ZM 9.18 6.07C 9.98 6.07 10.63 6.73 10.63 7.54 10.63 8.35 9.98 9.01 9.18 9.01 8.38 9.01 7.73 8.35 7.73 7.54 7.73 6.73 8.38 6.07 9.18 6.07ZM 13.53 6.07C 14.33 6.07 14.98 6.73 14.98 7.54 14.98 8.35 14.33 9 13.53 9 12.73 9 12.08 8.35 12.08 7.54 12.08 6.73 12.73 6.07 13.53 6.07ZM 17.88 6.07C 18.68 6.07 19.34 6.73 19.34 7.54 19.34 8.35 18.68 9.01 17.88 9.01 17.08 9.01 16.43 8.35 16.43 7.54 16.43 6.73 17.08 6.07 17.88 6.07Z" fill="rgb(59,59,59)"/></svg>