<?xml version="1.0" encoding="utf-8"?>
<svg xmlns="http://www.w3.org/2000/svg"
	xmlns:xlink="http://www.w3.org/1999/xlink"
	width="80px" height="83px" viewBox="0 0 80 83">
<path fillRule="evenodd" d="M 77.96-0.01C 77.96-0.01 66.03-0.01 66.03-0.01 64.91-0.01 64.01 0.89 64.01 2.01 64.01 2.01 64.01 6.18 64.01 6.18 64.01 6.18 15.86 6.18 15.86 6.18 15.86 6.18 15.86 2.01 15.86 2.01 15.86 0.89 14.96-0.01 13.84-0.01 13.84-0.01 2.02-0.01 2.02-0.01 0.9-0.01-0 0.89-0 2.01-0 2.01-0 14.28-0 14.28-0 15.4 0.9 16.3 2.02 16.3 2.02 16.3 13.95 16.3 13.95 16.3 15.07 16.3 15.97 15.4 15.97 14.28 15.97 14.28 15.97 10.11 15.97 10.11 15.97 10.11 38.13 10.11 38.13 10.11 37.91 15.06 25.87 38.35 18.22 52.08 17.77 52.87 18 53.88 18.67 54.55 25.53 60.4 27.22 66.14 27.67 69.07 27.67 69.07 25.08 69.07 25.08 69.07 23.96 69.07 23.06 69.97 23.06 71.09 23.06 71.09 23.06 80.99 23.06 80.99 23.06 82.12 23.96 83.02 25.08 83.02 25.08 83.02 55.01 83.02 55.01 83.02 56.13 83.02 57.03 82.12 57.03 80.99 57.03 80.99 57.03 71.09 57.03 71.09 57.03 69.97 56.13 69.07 55.01 69.07 55.01 69.07 52.42 69.07 52.42 69.07 52.87 66.14 54.56 60.4 61.42 54.55 62.09 53.99 62.32 52.87 61.87 52.08 54.22 38.35 42.18 14.95 41.96 10.11 41.96 10.11 64.01 10.11 64.01 10.11 64.01 10.11 64.01 14.28 64.01 14.28 64.01 15.4 64.91 16.3 66.03 16.3 66.03 16.3 77.96 16.3 77.96 16.3 79.08 16.3 79.98 15.4 79.98 14.28 79.98 14.28 79.98 2.01 79.98 2.01 79.98 0.89 79.08-0.01 77.96-0.01ZM 11.92 12.25C 11.92 12.25 3.94 12.25 3.94 12.25 3.94 12.25 3.94 3.93 3.94 3.93 3.94 3.93 11.92 3.93 11.92 3.93 11.92 3.93 11.92 12.25 11.92 12.25ZM 40.05 45.22C 41.51 45.22 42.63 46.34 42.63 47.8 42.63 49.27 41.51 50.39 40.05 50.39 38.58 50.39 37.46 49.27 37.46 47.8 37.46 46.45 38.7 45.22 40.05 45.22ZM 53.1 78.86C 53.1 78.86 27.11 78.86 27.11 78.86 27.11 78.86 27.11 72.89 27.11 72.89 27.11 72.89 29.81 72.89 29.81 72.89 29.81 72.89 50.4 72.89 50.4 72.89 50.4 72.89 53.1 72.89 53.1 72.89 53.1 72.89 53.1 78.86 53.1 78.86ZM 48.48 68.95C 48.48 68.95 31.61 68.95 31.61 68.95 31.16 65.69 29.47 59.17 22.39 52.53 25.08 47.58 33.18 32.73 38.02 21.7 38.02 21.7 38.02 41.62 38.02 41.62 35.43 42.4 33.52 44.88 33.52 47.8 33.52 51.4 36.45 54.33 40.05 54.33 43.65 54.33 46.57 51.4 46.57 47.8 46.57 44.88 44.66 42.52 42.07 41.62 42.07 41.62 42.07 21.59 42.07 21.59 47.02 32.62 55.01 47.47 57.71 52.53 50.62 59.17 48.93 65.69 48.48 68.95ZM 76.04 12.25C 76.04 12.25 68.06 12.25 68.06 12.25 68.06 12.25 68.06 8.54 68.06 8.54 68.06 8.43 68.06 8.31 68.06 8.2 68.06 8.09 68.06 7.98 68.06 7.86 68.06 7.86 68.06 4.04 68.06 4.04 68.06 4.04 76.04 4.04 76.04 4.04 76.04 4.04 76.04 12.25 76.04 12.25Z" fill="rgb(59,59,59)"/></svg>