<?xml version="1.0" encoding="utf-8"?>
<svg xmlns="http://www.w3.org/2000/svg"
	xmlns:xlink="http://www.w3.org/1999/xlink"
	width="79px" height="91px" viewBox="0 0 79 91">
<path fillRule="evenodd" d="M 76.89 91C 76.89 91 2.08 91 2.08 91 0.92 91-0.01 90.07-0.01 88.92-0.01 88.92-0.01 13.48-0.01 13.48-0.01 12.34 0.92 11.4 2.08 11.4 2.08 11.4 22.55 11.4 22.55 11.4 22.77 8.22 25.44 5.72 28.68 5.72 28.68 5.72 34.67 5.72 34.67 5.72 34.7 2.57 37.3 0.01 40.48 0.01 43.67 0.01 46.25 2.57 46.3 5.72 46.3 5.72 52.28 5.72 52.28 5.72 55.53 5.72 58.2 8.22 58.42 11.4 58.42 11.4 76.89 11.4 76.89 11.4 78.05 11.4 78.98 12.34 78.98 13.48 78.98 13.48 78.98 88.92 78.98 88.92 78.98 90.07 78.05 91 76.89 91ZM 54.26 11.84C 54.26 10.76 53.38 9.88 52.28 9.88 52.28 9.88 45.74 9.88 45.74 9.88 43.74 9.88 42.11 8.26 42.11 6.27 42.11 6.27 42.11 5.79 42.11 5.79 42.11 4.9 41.38 4.17 40.48 4.17 39.59 4.17 38.86 4.9 38.86 5.79 38.86 5.79 38.86 6.27 38.86 6.27 38.86 8.26 37.23 9.88 35.22 9.88 35.22 9.88 28.68 9.88 28.68 9.88 27.59 9.88 26.71 10.76 26.71 11.84 26.71 11.84 26.71 11.84 26.71 11.84 26.71 11.84 26.71 16.1 26.71 16.1 26.71 16.1 54.26 16.1 54.26 16.1 54.26 16.1 54.26 11.84 54.26 11.84ZM 74.79 15.56C 74.79 15.56 58.44 15.56 58.44 15.56 58.44 15.56 58.44 18.18 58.44 18.18 58.44 19.33 57.51 20.26 56.35 20.26 56.35 20.26 24.62 20.26 24.62 20.26 23.46 20.26 22.53 19.33 22.53 18.18 22.53 18.18 22.53 15.56 22.53 15.56 22.53 15.56 4.17 15.56 4.17 15.56 4.17 15.56 4.17 86.84 4.17 86.84 4.17 86.84 74.79 86.84 74.79 86.84 74.79 86.84 74.79 15.56 74.79 15.56ZM 19.77 32.38C 19.77 32.38 21.76 34.35 21.76 34.35 21.76 34.35 26.84 29.3 26.84 29.3 27.46 28.69 28.45 28.69 29.06 29.3 29.67 29.91 29.67 30.89 29.06 31.5 29.06 31.5 22.87 37.66 22.87 37.66 22.56 37.96 22.16 38.11 21.76 38.11 21.35 38.11 20.95 37.96 20.65 37.66 20.65 37.66 17.55 34.58 17.55 34.58 16.94 33.97 16.94 32.98 17.55 32.38 18.16 31.77 19.15 31.77 19.77 32.38ZM 19.77 45.71C 19.77 45.71 21.76 47.69 21.76 47.69 21.76 47.69 26.84 42.64 26.84 42.64 27.46 42.03 28.45 42.03 29.06 42.64 29.68 43.25 29.67 44.23 29.06 44.84 29.06 44.84 22.87 51 22.87 51 22.56 51.3 22.16 51.45 21.76 51.45 21.35 51.45 20.95 51.3 20.65 51 20.65 51 17.55 47.92 17.55 47.92 16.94 47.31 16.94 46.32 17.55 45.71 18.16 45.11 19.15 45.11 19.77 45.71ZM 19.77 59.06C 19.77 59.06 21.76 61.03 21.76 61.03 21.76 61.03 26.84 55.98 26.84 55.98 27.46 55.37 28.45 55.37 29.06 55.98 29.67 56.59 29.67 57.58 29.06 58.18 29.06 58.18 22.87 64.34 22.87 64.34 22.56 64.64 22.16 64.79 21.76 64.79 21.35 64.79 20.95 64.64 20.65 64.34 20.65 64.34 17.55 61.26 17.55 61.26 16.94 60.65 16.94 59.66 17.55 59.06 18.16 58.45 19.15 58.45 19.77 59.06ZM 19.77 72.4C 19.77 72.4 21.76 74.37 21.76 74.37 21.76 74.37 26.84 69.32 26.84 69.32 27.46 68.71 28.45 68.71 29.06 69.32 29.68 69.93 29.67 70.92 29.06 71.53 29.06 71.53 22.87 77.68 22.87 77.68 22.56 77.98 22.16 78.14 21.76 78.14 21.35 78.14 20.95 77.98 20.65 77.68 20.65 77.68 17.55 74.6 17.55 74.6 16.94 73.99 16.94 73.01 17.55 72.4 18.16 71.79 19.15 71.79 19.77 72.4ZM 35.64 31.92C 35.64 31.92 54.31 31.92 54.31 31.92 55.18 31.92 55.88 32.62 55.88 33.48 55.88 34.34 55.18 35.04 54.31 35.04 54.31 35.04 35.64 35.04 35.64 35.04 34.77 35.04 34.07 34.34 34.07 33.48 34.07 32.62 34.77 31.92 35.64 31.92ZM 35.64 45.26C 35.64 45.26 54.31 45.26 54.31 45.26 55.18 45.26 55.88 45.96 55.88 46.82 55.88 47.68 55.18 48.38 54.31 48.38 54.31 48.38 35.64 48.38 35.64 48.38 34.77 48.38 34.07 47.68 34.07 46.82 34.07 45.96 34.77 45.26 35.64 45.26ZM 35.64 58.6C 35.64 58.6 54.31 58.6 54.31 58.6 55.18 58.6 55.88 59.3 55.88 60.16 55.88 61.02 55.18 61.72 54.31 61.72 54.31 61.72 35.64 61.72 35.64 61.72 34.77 61.72 34.07 61.02 34.07 60.16 34.07 59.3 34.77 58.6 35.64 58.6ZM 35.64 71.94C 35.64 71.94 54.31 71.94 54.31 71.94 55.18 71.94 55.88 72.64 55.88 73.5 55.88 74.36 55.18 75.06 54.31 75.06 54.31 75.06 35.64 75.06 35.64 75.06 34.77 75.06 34.07 74.36 34.07 73.5 34.07 72.64 34.77 71.94 35.64 71.94ZM 40.48 10.14C 41.59 10.14 42.49 11.03 42.49 12.14 42.49 13.24 41.59 14.13 40.48 14.13 39.37 14.13 38.47 13.24 38.47 12.14 38.47 11.03 39.37 10.14 40.48 10.14Z" fill="rgb(59,59,59)"/></svg>